<?xml version="1.0" encoding="iso-8859-1"?>
<!-- Generator: Adobe Illustrator 19.0.0, SVG Export Plug-In . SVG Version: 6.00 Build 0)  -->
<svg version="1.1" id="Layer_1" xmlns="http://www.w3.org/2000/svg" xmlns:xlink="http://www.w3.org/1999/xlink" x="0px" y="0px"
	 viewBox="0 0 512 512" style="enable-background:new 0 0 512 512;" xml:space="preserve">
<rect x="8.017" y="119.182" style="fill:#E6EAEA;" width="495.967" height="384.802"/>
<rect x="8.017" y="119.182" style="fill:#9BAAAB;" width="247.983" height="384.802"/>
<rect x="46.497" y="170.489" style="fill:#FD6A33;" width="265.086" height="64.134"/>
<rect x="46.497" y="277.378" style="fill:#FF8C29;" width="337.77" height="64.134"/>
<rect x="46.497" y="384.267" style="fill:#4ACFD9;" width="401.904" height="64.134"/>
<rect x="46.497" y="170.489" style="fill:#F0353D;" width="209.503" height="64.134"/>
<rect x="46.497" y="277.378" style="fill:#FD6A33;" width="209.503" height="64.134"/>
<rect x="46.497" y="384.267" style="fill:#0295AA;" width="209.503" height="64.134"/>
<polygon style="fill:#687F82;" points="307.307,83.609 256,119.182 200.418,83.609 200.418,8.017 307.307,8.017 "/>
<path style="fill:#FFFFFF;" d="M273.102,71.616c-4.428,0-8.017-3.589-8.017-8.017V33.67c0-4.427,3.588-8.017,8.017-8.017
	s8.017,3.589,8.017,8.017v29.929C281.119,68.027,277.531,71.616,273.102,71.616z"/>
<path d="M503.983,111.165H281.632l30.242-20.968c2.16-1.498,3.449-3.959,3.449-6.589v-67.04V8.017c0-4.427-3.588-8.017-8.017-8.017
	H200.418c-4.428,0-8.017,3.589-8.017,8.017v8.551v67.041c0,2.733,1.393,5.278,3.695,6.752l32.506,20.804H8.017
	c-4.428,0-8.017,3.589-8.017,8.017v384.802C0,508.411,3.588,512,8.017,512H256h247.983c4.428,0,8.017-3.589,8.017-8.017V119.182
	C512,114.754,508.412,111.165,503.983,111.165z M247.983,440.384H54.514v-48.1h193.47V440.384z M264.017,392.284h176.367v48.1
	H264.017V392.284z M247.983,333.495H54.514v-48.1h193.47V333.495z M264.017,285.395h112.234v48.1H264.017V285.395z M247.983,226.605
	H54.514v-48.1h193.47V226.605z M264.017,178.505h39.549v48.1h-39.549V178.505z M208.434,16.568v-0.534h90.856v0.534v62.845
	l-43.469,30.137l-47.387-30.329V16.568z M16.033,127.198h231.95v35.273H46.497c-4.428,0-8.017,3.589-8.017,8.017v64.134
	c0,4.427,3.588,8.017,8.017,8.017h201.486v26.722H46.497c-4.428,0-8.017,3.589-8.017,8.017v64.134c0,4.427,3.588,8.017,8.017,8.017
	h201.486v26.722H46.497c-4.428,0-8.017,3.589-8.017,8.017v64.134c0,4.427,3.588,8.017,8.017,8.017h201.486v39.549H16.033V127.198z
	 M264.017,495.967v-39.549h184.384c4.428,0,8.017-3.589,8.017-8.017v-64.134c0-4.427-3.588-8.017-8.017-8.017H264.017v-26.722
	h120.251c4.428,0,8.017-3.589,8.017-8.017v-64.134c0-4.427-3.588-8.017-8.017-8.017H264.017v-26.722h47.566
	c4.428,0,8.017-3.589,8.017-8.017v-64.134c0-4.427-3.588-8.017-8.017-8.017h-47.566v-35.273h231.95v368.768H264.017z"/>
<g>
</g>
<g>
</g>
<g>
</g>
<g>
</g>
<g>
</g>
<g>
</g>
<g>
</g>
<g>
</g>
<g>
</g>
<g>
</g>
<g>
</g>
<g>
</g>
<g>
</g>
<g>
</g>
<g>
</g>
</svg>
