<svg height="480pt" viewBox="0 -31 480 479" width="480pt" xmlns="http://www.w3.org/2000/svg"><path d="m24 184.5h432c8.835938 0 16 7.164062 16 16v16c0 8.835938-7.164062 16-16 16h-432c-8.835938 0-16-7.164062-16-16v-16c0-8.835938 7.164062-16 16-16zm0 0" fill="#78b9eb"/><path d="m264 64.5c0 13.253906-10.746094 24-24 24s-24-10.746094-24-24 10.746094-24 24-24 24 10.746094 24 24zm0 0" fill="#78b9eb"/><path d="m104 352.5c0 13.253906-10.746094 24-24 24s-24-10.746094-24-24 10.746094-24 24-24 24 10.746094 24 24zm0 0" fill="#78b9eb"/><path d="m424 352.5c0 13.253906-10.746094 24-24 24s-24-10.746094-24-24 10.746094-24 24-24 24 10.746094 24 24zm0 0" fill="#78b9eb"/><g fill="#1a6fb0"><path d="m456 176.5h-432c-13.253906 0-24 10.746094-24 24v16c0 13.253906 10.746094 24 24 24h432c13.253906 0 24-10.746094 24-24v-16c0-13.253906-10.746094-24-24-24zm8 40c0 4.417969-3.582031 8-8 8h-432c-4.417969 0-8-3.582031-8-8v-16c0-4.417969 3.582031-8 8-8h432c4.417969 0 8 3.582031 8 8zm0 0"/><path d="m272 64.5c0-17.671875-14.328125-32-32-32s-32 14.328125-32 32 14.328125 32 32 32 32-14.328125 32-32zm-48 0c0-8.835938 7.164062-16 16-16s16 7.164062 16 16-7.164062 16-16 16-16-7.164062-16-16zm0 0"/><path d="m240 168.5c2.332031 0 4.542969-1.015625 6.0625-2.785156 5.9375-6.886719 57.9375-68.269532 57.9375-101.214844 0-35.347656-28.652344-64-64-64s-64 28.652344-64 64c0 32.945312 52 94.328125 57.9375 101.214844 1.519531 1.769531 3.730469 2.785156 6.0625 2.785156zm0-152c26.5.027344 47.972656 21.5 48 48 0 20.273438-30.542969 62.046875-48 83.511719-17.457031-21.457031-48-63.199219-48-83.511719.027344-26.5 21.5-47.972656 48-48zm0 0"/><path d="m48 352.5c0 17.671875 14.328125 32 32 32s32-14.328125 32-32-14.328125-32-32-32-32 14.328125-32 32zm48 0c0 8.835938-7.164062 16-16 16s-16-7.164062-16-16 7.164062-16 16-16 16 7.164062 16 16zm0 0"/><path d="m73.9375 251.285156c-5.9375 6.886719-57.9375 68.269532-57.9375 101.214844 0 35.347656 28.652344 64 64 64s64-28.652344 64-64c0-32.945312-52-94.328125-57.9375-101.214844-1.5625-1.691406-3.757812-2.65625-6.0625-2.65625s-4.5.964844-6.0625 2.65625zm6.0625 149.214844c-26.5-.027344-47.972656-21.5-48-48 0-20.273438 30.542969-62.046875 48-83.511719 17.457031 21.457031 48 63.199219 48 83.511719-.027344 26.5-21.5 47.972656-48 48zm0 0"/><path d="m368 352.5c0 17.671875 14.328125 32 32 32s32-14.328125 32-32-14.328125-32-32-32-32 14.328125-32 32zm48 0c0 8.835938-7.164062 16-16 16s-16-7.164062-16-16 7.164062-16 16-16 16 7.164062 16 16zm0 0"/><path d="m393.9375 251.285156c-5.9375 6.886719-57.9375 68.269532-57.9375 101.214844 0 35.347656 28.652344 64 64 64s64-28.652344 64-64c0-32.945312-52-94.328125-57.9375-101.214844-1.5625-1.691406-3.757812-2.65625-6.0625-2.65625s-4.5.964844-6.0625 2.65625zm6.0625 149.214844c-26.5-.027344-47.972656-21.5-48-48 0-20.273438 30.542969-62.046875 48-83.511719 17.457031 21.457031 48 63.199219 48 83.511719-.027344 26.5-21.5 47.972656-48 48zm0 0"/></g></svg>